<?xml version="1.0" standalone="no"?>
<!DOCTYPE svg PUBLIC "-//W3C//DTD SVG 20010904//EN"
 "http://www.w3.org/TR/2001/REC-SVG-20010904/DTD/svg10.dtd">
<svg version="1.0" xmlns="http://www.w3.org/2000/svg"
 width="500.000000pt" height="170.000000pt" viewBox="0 0 500.000000 170.000000"
 preserveAspectRatio="xMidYMid meet">

<g transform="translate(0.000000,170.000000) scale(0.100000,-0.100000)"
fill="#000000" stroke="none">
<path d="M0 833 l0 -833 2500 0 2500 0 0 620 c0 341 -3 620 -6 620 -3 0 -18
-9 -33 -19 -38 -28 -256 -135 -343 -170 -92 -36 -169 -51 -267 -51 -142 0
-257 43 -478 178 -148 91 -226 129 -331 162 -115 37 -200 49 -348 50 -202 0
-335 -20 -794 -120 -305 -67 -395 -80 -570 -87 -198 -7 -320 6 -444 48 -112
37 -177 71 -340 177 -365 237 -402 249 -798 254 l-248 4 0 -833z"/>
</g>
</svg>
